# Blender 4.1.1
# www.blender.org
mtllib paper.mtl
o Plane
v 0.111134 0.876612 0.212159
v -0.002344 -0.942077 2.913116
v 0.047793 0.916026 2.290029
v 0.056996 0.945533 2.096978
v -0.002478 0.941724 1.831424
v -0.062467 0.937876 1.612932
v -0.049405 0.939360 1.382543
v 0.027861 0.955064 1.127215
v 0.057127 0.957929 0.865893
v 0.047476 0.955908 0.583281
v 0.120989 0.936685 0.381399
v 0.023872 -0.944258 0.753005
v 0.002187 -0.956546 0.915511
v -0.012905 -0.954563 1.120965
v -0.039312 -0.943913 1.397150
v 0.002966 -0.926857 1.650951
v 0.004000 -0.886026 1.894978
v -0.027587 -0.939404 2.178755
v -0.048048 -0.956346 2.454153
v -0.014413 -0.956567 2.719815
v 0.079533 0.789772 0.117601
v 0.004540 0.624355 0.138417
v -0.034210 0.452870 0.129215
v -0.012843 0.241229 0.113521
v 0.002858 0.093160 0.093410
v 0.011521 -0.052440 0.129025
v -0.055113 -0.267367 0.132894
v -0.077164 -0.410629 0.081689
v -0.047373 -0.561528 0.057801
v -0.000087 -0.813210 2.934936
v 0.001038 -0.636206 2.937145
v -0.002626 -0.454545 2.937224
v -0.014515 -0.272727 2.937224
v -0.003746 -0.090954 2.937204
v 0.002076 0.089649 2.936670
v 0.009032 0.260013 2.931866
v -0.013229 0.400919 2.917953
v 0.021118 0.530447 2.917730
v 0.030628 -0.606388 0.194911
v -0.045524 -0.444526 0.262064
v -0.010075 -0.274022 0.290375
v 0.046208 -0.081464 0.292773
v 0.012752 0.090297 0.296367
v 0.009286 0.263072 0.288058
v -0.003963 0.446784 0.299122
v 0.021820 0.632255 0.295477
v 0.080979 0.811599 0.300808
v 0.062345 -0.826371 0.617867
v 0.064917 -0.675758 0.472911
v 0.003862 -0.464195 0.529324
v 0.011196 -0.275212 0.547424
v 0.014434 -0.092007 0.563601
v 0.012647 0.077547 0.620967
v 0.046321 0.258731 0.527937
v 0.018522 0.417773 0.585679
v 0.036542 0.627129 0.556756
v 0.025745 0.814605 0.551569
v 0.013749 -0.814707 0.843844
v 0.018450 -0.635569 0.832602
v 0.016027 -0.462870 0.832973
v 0.051636 -0.290865 0.830134
v 0.023278 -0.105946 0.837457
v 0.003292 0.012494 0.900431
v -0.000301 0.470692 0.811984
v -0.044000 0.635546 0.818216
v -0.007975 0.814511 0.829014
v 0.006998 -0.796057 1.144507
v 0.023072 -0.600707 1.227902
v 0.025655 -0.486118 1.145245
v 0.047922 -0.351659 1.131236
v 0.054155 -0.110395 1.101418
v -0.002294 0.073200 1.102742
v -0.003734 0.250820 1.096911
v 0.029518 0.433930 1.037722
v -0.045583 0.625760 1.079183
v -0.047093 0.802139 1.106502
v 0.017864 -0.779367 1.475930
v 0.025721 -0.685094 1.435739
v 0.066224 -0.306398 1.301345
v 0.027762 -0.101910 1.350714
v -0.050019 0.089078 1.364034
v -0.011317 0.274228 1.372133
v 0.017215 0.471762 1.410059
v 0.026747 0.611132 1.350542
v -0.022785 0.751907 1.399584
v 0.059068 -0.771982 1.687350
v 0.065159 -0.302272 1.508301
v 0.007366 -0.102006 1.610055
v -0.053618 0.090528 1.634297
v -0.011040 0.279357 1.633653
v -0.035195 0.466150 1.623853
v -0.038599 0.766670 1.582821
v 0.031800 -0.718272 1.868530
v 0.019681 -0.612837 1.931610
v 0.034927 -0.468550 1.883099
v 0.021255 -0.313834 1.794294
v 0.011695 -0.099833 1.885032
v 0.000789 0.091141 1.905888
v 0.041146 0.284041 1.890433
v -0.006960 0.502774 1.819009
v -0.041623 0.638705 1.831086
v -0.029892 0.765548 1.778173
v -0.038266 -0.794492 2.170116
v 0.002789 -0.633036 2.180680
v 0.009360 -0.457221 2.169099
v 0.010154 -0.280949 2.158597
v 0.034886 -0.092158 2.178392
v 0.008205 0.090931 2.181570
v 0.002419 0.274554 2.179072
v 0.009223 0.467512 2.165487
v 0.042174 0.650057 2.181739
v 0.008704 0.806454 2.141181
v -0.010233 -0.813932 2.453456
v 0.043080 -0.636178 2.454357
v 0.008729 -0.454716 2.453377
v -0.018874 -0.273344 2.452724
v -0.037478 -0.090958 2.454323
v -0.018095 0.090939 2.454508
v -0.035745 0.273851 2.456247
v -0.007663 0.468733 2.477144
v 0.050518 0.694888 2.556112
v -0.014193 0.821477 2.401295
v -0.001180 -0.815398 2.723131
v 0.009741 -0.636304 2.723307
v -0.009100 -0.454549 2.723279
v -0.047584 -0.272743 2.723263
v -0.019917 -0.090909 2.723307
v 0.005625 0.090847 2.723300
v 0.025420 0.271636 2.723688
v -0.021540 0.450576 2.734620
v 0.063109 0.626003 2.794290
vn -0.9998 0.0167 0.0050
vn -0.9742 0.0734 -0.2133
vn -0.9973 0.0679 -0.0266
vn -0.9467 0.3218 0.0148
vn -0.9384 0.2994 0.1724
vn -0.9737 0.1321 -0.1857
vn -0.9725 0.1308 -0.1929
vn -0.9933 -0.0676 0.0936
vn -0.9951 0.0925 0.0339
vn -0.9711 0.2106 0.1123
vn -0.9882 0.1470 -0.0429
vn -0.9705 -0.0957 0.2212
vn -0.9865 0.1386 0.0871
vn -0.9866 0.1501 0.0644
vn -0.9731 -0.2060 -0.1028
vn -0.9925 -0.1029 -0.0655
vn -0.9510 0.2858 -0.1178
vn -0.9441 0.3295 0.0054
vn -0.9713 -0.2266 -0.0724
vn -0.9677 0.2520 -0.0086
vn -0.9875 0.1481 -0.0541
vn -0.9862 -0.0939 -0.1360
vn -0.9898 0.1056 -0.0954
vn -0.9629 -0.0960 -0.2521
vn -0.9843 -0.1501 -0.0933
vn -0.9993 0.0372 -0.0025
vn -0.9482 0.2837 0.1429
vn -0.9050 0.3769 0.1973
vn -0.9875 0.1291 0.0904
vn -0.9373 -0.2597 0.2324
vn -0.9780 -0.2071 0.0246
vn -0.9732 0.1937 -0.1242
vn -0.9891 -0.1446 0.0265
vn -0.9897 0.1218 0.0751
vn -0.9947 -0.1001 -0.0213
vn -0.9930 0.0741 -0.0917
vn -0.9948 -0.0706 -0.0732
vn -0.9622 0.0702 0.2630
vn -0.9794 -0.1181 0.1639
vn -0.9577 0.2156 0.1907
vn -0.9776 -0.0772 0.1960
vn -0.9985 -0.0514 0.0161
vn -0.9901 -0.1280 -0.0570
vn -0.9613 -0.1369 -0.2392
vn -0.9755 0.2200 -0.0033
vn -0.9537 -0.3007 -0.0111
vn -0.9676 -0.2405 -0.0762
vn -0.8605 0.4533 -0.2325
vn -0.9967 -0.0208 0.0791
vn -0.8923 -0.3961 0.2165
vn -0.9872 0.1518 -0.0480
vn -0.9775 0.2063 -0.0445
vn -0.9197 -0.3644 -0.1458
vn -0.9820 -0.1609 -0.0985
vn -0.9971 0.0653 0.0392
vn -0.8969 0.4317 -0.0957
vn -0.9902 0.0131 -0.1390
vn -0.9666 -0.2556 -0.0155
vn -0.9539 -0.2937 0.0618
vn -0.9815 -0.1550 0.1122
vn -0.9787 0.2031 0.0289
vn -0.9995 -0.0141 0.0298
vn -0.9968 0.0801 0.0046
vn -0.9129 0.4071 0.0283
vn -0.9721 0.2028 -0.1181
vn -0.9308 -0.2362 -0.2791
vn -0.9891 -0.1329 -0.0640
vn -0.9993 0.0147 0.0330
vn -0.9677 0.2028 0.1497
vn -0.9991 -0.0141 0.0401
vn -0.9885 -0.0957 -0.1170
vn -0.9099 0.2190 -0.3522
vn -0.9271 0.3120 -0.2079
vn -0.9886 0.1386 0.0584
vn -0.9797 -0.1921 0.0574
vn -0.9882 -0.0125 0.1524
vn -0.9999 -0.0103 -0.0007
vn -0.9546 0.2803 -0.1011
vn -0.9961 0.0308 0.0826
vn -0.8760 -0.4651 0.1276
vn -0.9369 0.3430 -0.0672
vn -0.9490 0.3139 -0.0299
vn -0.9851 0.1389 0.1014
vn -0.9818 -0.0812 0.1719
vn -0.9917 -0.0138 0.1275
vn -0.9977 -0.0476 0.0480
vn -0.9242 0.2910 0.2473
vn -0.9487 0.1511 0.2777
vn -0.9686 -0.2118 0.1301
vn -0.9035 0.4279 0.0239
vn -0.9673 -0.2524 -0.0245
vn -0.9915 0.1087 -0.0720
vn -0.9901 0.1391 -0.0157
vn -0.9954 0.0590 0.0753
vn -0.9673 -0.2047 0.1495
vn -0.9993 -0.0202 0.0302
vn -0.9991 0.0069 -0.0407
vn -0.9942 0.0919 0.0552
vn -0.9913 0.0145 -0.1312
vn -0.9881 0.1350 -0.0739
vn -0.9853 0.1385 -0.0996
vn -0.9541 0.2639 0.1412
vn -0.9346 0.3514 -0.0548
vn -0.9889 -0.0803 -0.1252
vn -0.9651 0.2560 -0.0560
vn -0.9592 0.2553 0.1217
vn -0.8982 0.4393 -0.0174
vn -0.9417 -0.2602 0.2132
vn -0.9903 0.1082 0.0874
vn -0.9923 0.1057 0.0648
vn -0.9895 -0.1000 -0.1048
vn -0.9865 -0.1504 -0.0651
vn -0.9752 -0.1853 -0.1210
vn -0.9976 0.0608 0.0338
vn -0.8835 0.4567 -0.1041
vn -0.9192 -0.3880 0.0670
vn -0.9818 0.1820 -0.0539
vn -0.9903 0.0253 -0.1363
vn -0.9949 -0.0327 -0.0959
vn -0.9585 -0.1353 -0.2508
vn -0.9851 0.1396 -0.1008
vn -1.0000 0.0044 -0.0023
vn -0.9729 -0.1834 0.1411
vn -0.9648 0.2380 0.1118
vn -0.9878 0.1263 0.0908
vn -0.9613 -0.1449 0.2344
vn -0.9831 0.1718 0.0634
vn -0.9909 0.0256 -0.1321
vn -0.9992 -0.0311 0.0269
vn -0.9946 -0.0656 0.0803
vn -0.9991 -0.0330 -0.0275
vn -0.9960 -0.0008 -0.0890
vn -0.9973 0.0330 -0.0650
vn -0.9545 0.2530 -0.1578
vn -0.9884 -0.1454 0.0432
vn -0.9687 -0.1479 0.1996
vn -0.9574 0.2165 0.1913
vn -0.9525 -0.3039 0.0174
vn -0.9673 -0.1996 -0.1566
vn -0.9865 -0.1467 -0.0733
vn -0.9897 0.1433 -0.0018
vn -0.9786 0.2052 -0.0141
vn -0.9254 -0.3718 -0.0729
vn -0.9828 -0.1845 -0.0014
vn -0.9891 -0.1351 0.0589
vn -0.8946 -0.3905 0.2174
vn -0.9979 0.0519 -0.0382
vn -0.9853 0.1656 -0.0412
vn -0.9838 -0.0138 -0.1788
vn -0.9521 -0.2921 -0.0909
vn -0.9946 0.0377 0.0970
vn -0.9951 0.0948 0.0279
vn -0.8873 0.4491 -0.1051
vn -0.9804 0.1973 0.0014
vn -0.9249 -0.3753 0.0611
vn -0.9689 -0.2218 0.1096
vn -0.9997 0.0249 -0.0073
vn -0.9849 0.1676 0.0428
vn -0.9995 0.0291 0.0091
vn -0.9994 0.0247 -0.0240
vn -0.9770 0.1769 -0.1187
vn -0.9544 -0.0630 -0.2920
vn -0.9925 0.0717 -0.0993
vn -0.9993 -0.0211 0.0312
vn -0.9791 -0.1554 0.1314
vn -0.9986 0.0349 0.0399
vn -0.9629 -0.2522 -0.0962
vn -0.9774 0.0124 -0.2108
vn -0.8882 0.4133 -0.2006
vn -0.9969 -0.0559 0.0551
vn -0.9914 0.0974 0.0877
vn -0.9853 -0.0801 0.1507
vn -0.9825 0.1862 0.0070
vn -0.9747 -0.1873 -0.1216
vn -0.9965 0.0103 0.0825
vn -0.9669 0.1693 0.1911
vn -0.9564 -0.2883 0.0460
vn -0.9252 0.3777 -0.0377
vn -0.9042 0.4198 0.0784
vn -0.9617 0.2077 0.1786
vn -0.9843 -0.1096 0.1385
vn -0.9926 -0.1116 0.0468
vn -0.9665 -0.1918 0.1707
vn -0.9236 0.2665 0.2754
vn -0.9787 0.0837 0.1874
vn -0.8110 -0.5045 0.2963
vn -0.9604 0.2549 0.1126
vn -0.9827 -0.1638 -0.0865
vn -0.9991 0.0403 -0.0164
vn -0.9966 0.0324 0.0754
vn -0.9773 0.1487 0.1510
vn -0.9974 -0.0652 0.0302
vn -0.9939 -0.1030 -0.0404
vn -0.9981 0.0609 0.0045
vt 0.909091 0.909091
vt 1.000000 1.000000
vt 0.909091 1.000000
vt 1.000000 0.181818
vt 0.909091 0.272727
vt 0.909091 0.181818
vt 1.000000 0.272727
vt 0.909091 0.363636
vt 1.000000 0.454545
vt 0.909091 0.454545
vt 1.000000 0.545455
vt 0.909091 0.545455
vt 1.000000 0.636364
vt 0.909091 0.636364
vt 0.909091 0.727273
vt 1.000000 0.727273
vt 0.909091 0.818182
vt 1.000000 0.909091
vt 0.272727 0.818182
vt 0.181818 0.909091
vt 0.181818 0.818182
vt 0.363636 0.818182
vt 0.272727 0.909091
vt 0.454545 0.818182
vt 0.363636 0.909091
vt 0.545455 0.909091
vt 0.454545 0.909091
vt 0.545455 0.818182
vt 0.636364 0.909091
vt 0.636364 0.818182
vt 0.727273 0.909091
vt 0.727273 0.818182
vt 0.818182 0.909091
vt 0.818182 0.818182
vt 0.090909 0.727273
vt 0.000000 0.818182
vt 0.000000 0.727273
vt 0.181818 0.727273
vt 0.090909 0.818182
vt 0.272727 0.727273
vt 0.363636 0.727273
vt 0.454545 0.727273
vt 0.545455 0.727273
vt 0.636364 0.727273
vt 0.818182 0.727273
vt 0.727273 0.727273
vt 0.000000 0.636364
vt 0.181818 0.636364
vt 0.090909 0.636364
vt 0.272727 0.636364
vt 0.363636 0.636364
vt 0.454545 0.636364
vt 0.545455 0.636364
vt 0.727273 0.636364
vt 0.636364 0.636364
vt 0.818182 0.636364
vt 0.000000 0.545455
vt 0.363636 0.545455
vt 0.272727 0.545455
vt 0.454545 0.545455
vt 0.545455 0.545455
vt 0.000000 0.454545
vt 0.090909 0.545454
vt 0.272727 0.454545
vt 0.363636 0.454545
vt 0.454545 0.454545
vt 0.545455 0.454545
vt 0.636364 0.545455
vt 0.090909 0.363636
vt 0.000000 0.363636
vt 0.181818 0.363636
vt 0.090909 0.454545
vt 0.272727 0.363636
vt 0.181818 0.454545
vt 0.363636 0.363636
vt 0.454545 0.363636
vt 0.545455 0.363636
vt 0.636364 0.454545
vt 0.818182 0.454545
vt 0.818182 0.363636
vt 0.090909 0.272727
vt 0.000000 0.272727
vt 0.272727 0.272727
vt 0.181818 0.272727
vt 0.454545 0.272727
vt 0.636364 0.272727
vt 0.545455 0.272727
vt 0.727273 0.272727
vt 0.636364 0.363636
vt 0.818182 0.272727
vt 0.727273 0.363636
vt 0.000000 0.181818
vt 0.090909 0.181818
vt 0.181818 0.181818
vt 0.454545 0.181818
vt 0.636364 0.181818
vt 0.545455 0.181818
vt 0.727273 0.181818
vt 0.818182 0.181818
vt 0.000000 0.090909
vt 0.181818 0.090909
vt 0.090909 0.090909
vt 0.272727 0.090909
vt 0.363636 0.181818
vt 0.272727 0.181818
vt 0.454545 0.090909
vt 0.363636 0.090909
vt 0.636364 0.090909
vt 0.545455 0.090909
vt 0.818182 0.090909
vt 0.727273 0.090909
vt 0.000000 0.000000
vt 0.090909 0.000000
vt 0.181818 0.000000
vt 0.272727 0.000000
vt 0.363636 0.000000
vt 0.545455 0.000000
vt 0.454545 0.000000
vt 0.636364 0.000000
vt 0.818182 0.000000
vt 0.727273 0.000000
vt 0.181818 1.000000
vt 0.272727 1.000000
vt 0.363636 1.000000
vt 0.454545 1.000000
vt 0.636364 1.000000
vt 0.545455 1.000000
vt 0.818182 1.000000
vt 0.727273 1.000000
vt 1.000000 0.363636
vt 1.000000 0.818182
s 0
f 123/1/1 2/2/1 30/3/1
f 12/4/2 58/5/2 48/6/2
f 13/7/3 67/8/3 58/5/3
f 67/8/4 15/9/4 77/10/4
f 77/10/5 16/11/5 86/12/5
f 86/12/6 17/13/6 93/14/6
f 17/13/7 103/15/7 93/14/7
f 18/16/8 113/17/8 103/15/8
f 113/17/9 20/18/9 123/1/9
f 120/19/10 131/20/10 121/21/10
f 119/22/11 130/23/11 120/19/11
f 118/24/12 129/25/12 119/22/12
f 118/24/13 127/26/13 128/27/13
f 117/28/14 126/29/14 127/26/14
f 116/30/15 125/31/15 126/29/15
f 115/32/16 124/33/16 125/31/16
f 113/17/17 124/33/17 114/34/17
f 112/35/18 3/36/18 4/37/18
f 111/38/19 122/39/19 112/35/19
f 111/38/20 120/19/20 121/21/20
f 110/40/21 119/22/21 120/19/21
f 109/41/22 118/24/22 119/22/22
f 108/42/23 117/28/23 118/24/23
f 107/43/24 116/30/24 117/28/24
f 106/44/25 115/32/25 116/30/25
f 104/45/26 115/32/26 105/46/26
f 104/45/27 113/17/27 114/34/27
f 5/47/28 112/35/28 4/37/28
f 101/48/29 112/35/29 102/49/29
f 100/50/30 111/38/30 101/48/30
f 99/51/31 110/40/31 100/50/31
f 98/52/32 109/41/32 99/51/32
f 98/52/33 107/43/33 108/42/33
f 97/53/34 106/44/34 107/43/34
f 95/54/35 106/44/35 96/55/35
f 94/56/36 105/46/36 95/54/36
f 93/14/37 104/45/37 94/56/37
f 6/57/38 102/49/38 5/47/38
f 90/58/39 100/50/39 91/59/39
f 90/58/40 98/52/40 99/51/40
f 89/60/41 97/53/41 98/52/41
f 88/61/42 96/55/42 97/53/42
f 7/62/43 92/63/43 6/57/43
f 83/64/44 90/58/44 91/59/44
f 82/65/45 89/60/45 90/58/45
f 81/66/46 88/61/46 89/60/46
f 80/67/47 87/68/47 88/61/47
f 76/69/48 7/62/48 8/70/48
f 75/71/49 85/72/49 76/69/49
f 74/73/50 84/74/50 75/71/50
f 74/73/51 82/65/51 83/64/51
f 73/75/52 81/66/52 82/65/52
f 72/76/53 80/67/53 81/66/53
f 71/77/54 79/78/54 80/67/54
f 67/8/55 78/79/55 68/80/55
f 66/81/56 8/70/56 9/82/56
f 66/81/57 75/71/57 76/69/57
f 64/83/58 75/71/58 65/84/58
f 63/85/59 71/77/59 72/76/59
f 61/86/60 71/77/60 62/87/60
f 60/88/61 70/89/61 61/86/61
f 59/90/62 69/91/62 60/88/62
f 59/90/63 67/8/63 68/80/63
f 10/92/64 66/81/64 9/82/64
f 57/93/65 65/84/65 66/81/65
f 56/94/66 64/83/66 65/84/66
f 53/95/67 62/87/67 63/85/67
f 51/96/68 62/87/68 52/97/68
f 51/96/69 60/88/69 61/86/69
f 50/98/70 59/90/70 60/88/70
f 48/6/71 59/90/71 49/99/71
f 11/100/72 57/93/72 10/92/72
f 46/101/73 57/93/73 47/102/73
f 45/103/74 56/94/74 46/101/74
f 45/103/75 54/104/75 55/105/75
f 43/106/76 54/104/76 44/107/76
f 43/106/77 52/97/77 53/95/77
f 41/108/78 52/97/78 42/109/78
f 41/108/79 50/98/79 51/96/79
f 39/110/80 50/98/80 40/111/80
f 1/112/81 47/102/81 11/100/81
f 21/113/82 46/101/82 47/102/82
f 22/114/83 45/103/83 46/101/83
f 23/115/84 44/107/84 45/103/84
f 24/116/85 43/106/85 44/107/85
f 26/117/86 43/106/86 25/118/86
f 27/119/87 42/109/87 26/117/87
f 27/119/88 40/111/88 41/108/88
f 29/120/89 40/111/89 28/121/89
f 130/23/90 38/122/90 131/20/90
f 129/25/91 37/123/91 130/23/91
f 128/27/92 36/124/92 129/25/92
f 127/26/93 35/125/93 128/27/93
f 127/26/94 33/126/94 34/127/94
f 125/31/95 33/126/95 126/29/95
f 125/31/96 31/128/96 32/129/96
f 124/33/97 30/3/97 31/128/97
f 123/1/98 20/18/98 2/2/98
f 12/4/99 13/7/99 58/5/99
f 13/7/100 14/130/100 67/8/100
f 67/8/101 14/130/101 15/9/101
f 77/10/102 15/9/102 16/11/102
f 86/12/103 16/11/103 17/13/103
f 17/13/104 18/16/104 103/15/104
f 18/16/105 19/131/105 113/17/105
f 113/17/106 19/131/106 20/18/106
f 120/19/107 130/23/107 131/20/107
f 119/22/108 129/25/108 130/23/108
f 118/24/109 128/27/109 129/25/109
f 118/24/110 117/28/110 127/26/110
f 117/28/111 116/30/111 126/29/111
f 116/30/112 115/32/112 125/31/112
f 115/32/113 114/34/113 124/33/113
f 113/17/114 123/1/114 124/33/114
f 112/35/115 122/39/115 3/36/115
f 111/38/116 121/21/116 122/39/116
f 111/38/117 110/40/117 120/19/117
f 110/40/118 109/41/118 119/22/118
f 109/41/119 108/42/119 118/24/119
f 108/42/120 107/43/120 117/28/120
f 107/43/121 106/44/121 116/30/121
f 106/44/122 105/46/122 115/32/122
f 104/45/123 114/34/123 115/32/123
f 104/45/124 103/15/124 113/17/124
f 5/47/125 102/49/125 112/35/125
f 101/48/126 111/38/126 112/35/126
f 100/50/127 110/40/127 111/38/127
f 99/51/128 109/41/128 110/40/128
f 98/52/129 108/42/129 109/41/129
f 98/52/130 97/53/130 107/43/130
f 97/53/131 96/55/131 106/44/131
f 95/54/132 105/46/132 106/44/132
f 94/56/133 104/45/133 105/46/133
f 93/14/134 103/15/134 104/45/134
f 6/57/135 92/63/135 102/49/135
f 90/58/136 99/51/136 100/50/136
f 90/58/137 89/60/137 98/52/137
f 89/60/138 88/61/138 97/53/138
f 88/61/139 87/68/139 96/55/139
f 7/62/140 85/72/140 92/63/140
f 83/64/141 82/65/141 90/58/141
f 82/65/142 81/66/142 89/60/142
f 81/66/143 80/67/143 88/61/143
f 80/67/144 79/78/144 87/68/144
f 76/69/145 85/72/145 7/62/145
f 75/71/146 84/74/146 85/72/146
f 74/73/147 83/64/147 84/74/147
f 74/73/148 73/75/148 82/65/148
f 73/75/149 72/76/149 81/66/149
f 72/76/150 71/77/150 80/67/150
f 71/77/151 70/89/151 79/78/151
f 67/8/152 77/10/152 78/79/152
f 66/81/153 76/69/153 8/70/153
f 66/81/154 65/84/154 75/71/154
f 64/83/155 74/73/155 75/71/155
f 63/85/156 62/87/156 71/77/156
f 61/86/157 70/89/157 71/77/157
f 60/88/158 69/91/158 70/89/158
f 59/90/159 68/80/159 69/91/159
f 59/90/160 58/5/160 67/8/160
f 10/92/161 57/93/161 66/81/161
f 57/93/162 56/94/162 65/84/162
f 56/94/163 55/105/163 64/83/163
f 53/95/164 52/97/164 62/87/164
f 51/96/165 61/86/165 62/87/165
f 51/96/166 50/98/166 60/88/166
f 50/98/167 49/99/167 59/90/167
f 48/6/168 58/5/168 59/90/168
f 11/100/169 47/102/169 57/93/169
f 46/101/170 56/94/170 57/93/170
f 45/103/171 55/105/171 56/94/171
f 45/103/172 44/107/172 54/104/172
f 43/106/173 53/95/173 54/104/173
f 43/106/174 42/109/174 52/97/174
f 41/108/175 51/96/175 52/97/175
f 41/108/176 40/111/176 50/98/176
f 39/110/177 49/99/177 50/98/177
f 1/112/178 21/113/178 47/102/178
f 21/113/179 22/114/179 46/101/179
f 22/114/180 23/115/180 45/103/180
f 23/115/181 24/116/181 44/107/181
f 24/116/182 25/118/182 43/106/182
f 26/117/183 42/109/183 43/106/183
f 27/119/184 41/108/184 42/109/184
f 27/119/185 28/121/185 40/111/185
f 29/120/186 39/110/186 40/111/186
f 130/23/187 37/123/187 38/122/187
f 129/25/188 36/124/188 37/123/188
f 128/27/189 35/125/189 36/124/189
f 127/26/190 34/127/190 35/125/190
f 127/26/191 126/29/191 33/126/191
f 125/31/192 32/129/192 33/126/192
f 125/31/193 124/33/193 31/128/193
f 124/33/194 123/1/194 30/3/194
