# Blender 4.1.1
# www.blender.org
mtllib treeNew.mtl
o Cube
v -2.000000 0.000000 0.000000
v 0.000000 2.000000 0.000000
v -1.912179 0.624099 0.000000
v -1.636515 1.190863 0.000000
v -1.190863 1.636515 0.000000
v -0.624099 1.912179 0.000000
v 0.000000 1.000000 20.000000
v -1.000000 0.000000 20.000000
v -0.312050 0.956090 20.000000
v -0.595431 0.818258 20.000000
v -0.818258 0.595432 20.000000
v -0.956090 0.312050 20.000000
v 0.000000 2.000000 0.000000
v 2.000000 0.000000 0.000000
v 0.624099 1.912179 0.000000
v 1.190863 1.636515 0.000000
v 1.636515 1.190863 0.000000
v 1.912179 0.624099 0.000000
v 1.000000 0.000000 20.000000
v 0.000000 1.000000 20.000000
v 0.956090 0.312050 20.000000
v 0.818258 0.595432 20.000000
v 0.595431 0.818258 20.000000
v 0.312050 0.956090 20.000000
v 0.000000 -2.000000 0.000000
v -2.000000 0.000000 0.000000
v -0.624099 -1.912179 0.000000
v -1.190863 -1.636515 0.000000
v -1.636515 -1.190863 0.000000
v -1.912179 -0.624099 0.000000
v -1.000000 0.000000 20.000000
v 0.000000 -1.000000 20.000000
v -0.956090 -0.312050 20.000000
v -0.818258 -0.595431 20.000000
v -0.595431 -0.818258 20.000000
v -0.312050 -0.956090 20.000000
v 2.000000 0.000000 0.000000
v 0.000000 -2.000000 0.000000
v 1.912179 -0.624099 0.000000
v 1.636515 -1.190863 0.000000
v 1.190863 -1.636515 0.000000
v 0.624099 -1.912179 0.000000
v 0.000000 -1.000000 20.000000
v 1.000000 0.000000 20.000000
v 0.312050 -0.956090 20.000000
v 0.595431 -0.818258 20.000000
v 0.818258 -0.595431 20.000000
v 0.956090 -0.312050 20.000000
vn -0.0000 -0.0000 1.0000
vn -0.9890 0.1392 0.0495
vn -0.8982 0.4368 0.0498
vn -0.7062 0.7062 0.0499
vn -0.4368 0.8982 0.0498
vn -0.1392 0.9890 0.0495
vn 0.9890 0.1392 0.0495
vn 0.8982 0.4368 0.0498
vn 0.7062 0.7062 0.0499
vn 0.4368 0.8982 0.0498
vn 0.1392 0.9890 0.0495
vn 0.1392 -0.9890 0.0495
vn 0.4368 -0.8982 0.0498
vn 0.7062 -0.7062 0.0499
vn 0.8982 -0.4368 0.0498
vn 0.9890 -0.1392 0.0495
vn -0.9890 -0.1392 0.0495
vn -0.8982 -0.4368 0.0498
vn -0.7062 -0.7062 0.0499
vn -0.4368 -0.8982 0.0498
vn -0.1392 -0.9890 0.0495
vn -0.0000 -0.0000 -1.0000
vt 0.375000 0.875000
vt 0.625000 0.875000
vt 0.375000 0.625000
vt 0.625000 0.625000
vt 0.789006 0.744511
vt 0.750000 0.750000
vt 0.710994 0.744511
vt 0.375000 0.125000
vt 0.625000 0.125000
vt 0.375000 0.375000
vt 0.625000 0.375000
vt 0.625000 0.914006
vt 0.375000 0.914006
vt 0.625000 1.000000
vt 0.375000 1.000000
vt 0.625000 0.000000
vt 0.375000 0.050571
vt 0.375000 0.000000
vt 0.625000 0.050571
vt 0.375000 0.085994
vt 0.625000 0.085994
vt 0.625000 0.335994
vt 0.375000 0.335994
vt 0.625000 0.300571
vt 0.375000 0.199429
vt 0.625000 0.199429
vt 0.375000 0.164006
vt 0.625000 0.164006
vt 0.625000 0.585994
vt 0.375000 0.585994
vt 0.625000 0.550571
vt 0.375000 0.550571
vt 0.625000 0.449429
vt 0.375000 0.414006
vt 0.625000 0.414006
vt 0.625000 0.835994
vt 0.375000 0.835994
vt 0.625000 0.800571
vt 0.375000 0.800571
vt 0.625000 0.699429
vt 0.375000 0.664006
vt 0.625000 0.664006
vt 0.289006 0.744511
vt 0.250000 0.750000
vt 0.210994 0.744511
vt 0.630489 0.585994
vt 0.647718 0.550571
vt 0.675571 0.522718
vt 0.789006 0.505489
vt 0.824429 0.522718
vt 0.852282 0.550571
vt 0.869511 0.664006
vt 0.852282 0.699429
vt 0.824429 0.727282
vt 0.675571 0.727282
vt 0.647718 0.699429
vt 0.710994 0.505489
vt 0.630489 0.664006
vt 0.869511 0.585994
vt 0.875000 0.625000
vt 0.750000 0.500000
vt 0.375000 0.300571
vt 0.375000 0.449429
vt 0.375000 0.699429
vt 0.130489 0.585994
vt 0.147718 0.550571
vt 0.175571 0.522718
vt 0.289006 0.505489
vt 0.324429 0.522718
vt 0.352282 0.550571
vt 0.369511 0.664006
vt 0.352282 0.699429
vt 0.324429 0.727282
vt 0.175571 0.727282
vt 0.147718 0.699429
vt 0.210994 0.505489
vt 0.130489 0.664006
vt 0.369511 0.585994
vt 0.250000 0.500000
vt 0.125000 0.625000
s 0
f 26/1/1 8/2/1 1/1/1
f 38/3/1 32/4/1 25/3/1
f 12/5/1 31/6/1 33/7/1
f 2/8/1 20/9/1 13/8/1
f 14/10/1 44/11/1 37/10/1
f 1/1/2 12/12/2 3/13/2
f 3/13/3 11/14/3 4/15/3
f 11/16/4 5/17/4 4/18/4
f 10/19/5 6/20/5 5/17/5
f 9/21/6 2/8/6 6/20/6
f 14/10/7 21/22/7 19/11/7
f 18/23/8 22/24/8 21/22/8
f 22/24/9 16/25/9 23/26/9
f 23/26/10 15/27/10 24/28/10
f 24/28/11 13/8/11 20/9/11
f 38/3/12 45/29/12 43/4/12
f 42/30/13 46/31/13 45/29/13
f 41/32/14 47/33/14 46/31/14
f 47/33/15 39/34/15 48/35/15
f 48/35/16 37/10/16 44/11/16
f 26/1/17 33/36/17 31/2/17
f 30/37/18 34/38/18 33/36/18
f 29/39/19 35/40/19 34/38/19
f 35/40/20 27/41/20 36/42/20
f 36/42/21 25/3/21 32/4/21
f 30/43/22 1/44/22 3/45/22
f 26/1/1 31/2/1 8/2/1
f 38/3/1 43/4/1 32/4/1
f 45/46/1 46/47/1 47/48/1
f 21/49/1 22/50/1 23/51/1
f 9/52/1 10/53/1 11/54/1
f 33/7/1 34/55/1 35/56/1
f 45/46/1 47/48/1 48/57/1
f 33/7/1 35/56/1 36/58/1
f 21/49/1 23/51/1 24/59/1
f 9/52/1 11/54/1 12/5/1
f 24/59/1 20/60/1 7/60/1
f 7/60/1 9/52/1 12/5/1
f 24/59/1 7/60/1 12/5/1
f 21/49/1 24/59/1 12/5/1
f 48/57/1 44/61/1 19/61/1
f 19/61/1 21/49/1 12/5/1
f 48/57/1 19/61/1 12/5/1
f 45/46/1 48/57/1 12/5/1
f 36/58/1 32/4/1 43/4/1
f 43/4/1 45/46/1 12/5/1
f 36/58/1 43/4/1 12/5/1
f 33/7/1 36/58/1 12/5/1
f 12/5/1 8/6/1 31/6/1
f 2/8/1 7/9/1 20/9/1
f 14/10/1 19/11/1 44/11/1
f 1/1/2 8/2/2 12/12/2
f 3/13/3 12/12/3 11/14/3
f 11/16/4 10/19/4 5/17/4
f 10/19/5 9/21/5 6/20/5
f 9/21/6 7/9/6 2/8/6
f 14/10/7 18/23/7 21/22/7
f 18/23/8 17/62/8 22/24/8
f 22/24/9 17/62/9 16/25/9
f 23/26/10 16/25/10 15/27/10
f 24/28/11 15/27/11 13/8/11
f 38/3/12 42/30/12 45/29/12
f 42/30/13 41/32/13 46/31/13
f 41/32/14 40/63/14 47/33/14
f 47/33/15 40/63/15 39/34/15
f 48/35/16 39/34/16 37/10/16
f 26/1/17 30/37/17 33/36/17
f 30/37/18 29/39/18 34/38/18
f 29/39/19 28/64/19 35/40/19
f 35/40/20 28/64/20 27/41/20
f 36/42/21 27/41/21 25/3/21
f 15/65/22 16/66/22 17/67/22
f 39/68/22 40/69/22 41/70/22
f 27/71/22 28/72/22 29/73/22
f 3/45/22 4/74/22 5/75/22
f 15/65/22 17/67/22 18/76/22
f 3/45/22 5/75/22 6/77/22
f 39/68/22 41/70/22 42/78/22
f 27/71/22 29/73/22 30/43/22
f 42/78/1 38/3/1 25/3/1
f 25/3/22 27/71/22 30/43/22
f 42/78/22 25/3/22 30/43/22
f 39/68/22 42/78/22 30/43/22
f 18/76/1 14/79/1 37/79/1
f 37/79/22 39/68/22 30/43/22
f 18/76/22 37/79/22 30/43/22
f 15/65/22 18/76/22 30/43/22
f 6/77/1 2/80/1 13/80/1
f 13/80/22 15/65/22 30/43/22
f 6/77/22 13/80/22 30/43/22
f 3/45/22 6/77/22 30/43/22
f 30/43/1 26/44/1 1/44/1
